# xmcd
#
# Track frame offsets:
#	150
#	16014
#	33895
#	47686
#	65004
#	81962
#	97499
#	114651
#	131930
#	145710
#	163699
#	178303
#	195256
#	214877
#	228762
#	248341
#	265853
#	281720
#	298940
#
# Disc length: 4184 seconds
#
# Revision: 1
# Processed by: cddbd v1.5.2PL0 Copyright (c) Steve Scherf et al.
# Submitted via: audiograbber 1.83.01
#
DISCID=1a105613
DTITLE=Various Artist - Nu Rock Traxx 040
DYEAR=2002
DGENRE=Rock
TTITLE0=Moby - Extreme Ways
TTITLE1=Chevelle - The Red
TTITLE2=Unwritten Law - Up All Night
TTITLE3=Sinch - Something More
TTITLE4=Rob Zombie - Demon Speeding
TTITLE5=The Color Red - Sore Throat
TTITLE6=Coldplay - In My Place
TTITLE7=Cornershop - Lessons Learned
TTITLE8=Weezer - Keep Fishin'
TTITLE9=Corey Taylor - Bother
TTITLE10=Stroke 9 - 100 Girls
TTITLE11=Loudermilk - Estrogen Oxygen Aches In The Teeth Again
TTITLE12=Lost Prophets - The Fake Sound Of Progress
TTITLE13=Finch - Letters To You
TTITLE14=Nickelback - Never Again
TTITLE15=Ben Kweller - Wasted And Ready
TTITLE16=Trik Turner - Sacrifice
TTITLE17=Doves - Caught By The River
TTITLE18=P.O.D. - Boom (Crystal Method Remix)
EXTD=
EXTT0=
EXTT1=
EXTT2=
EXTT3=
EXTT4=
EXTT5=
EXTT6=
EXTT7=
EXTT8=
EXTT9=
EXTT10=
EXTT11=
EXTT12=
EXTT13=
EXTT14=
EXTT15=
EXTT16=
EXTT17=
EXTT18=
PLAYORDER=
